<?xml version="1.0" encoding="UTF-8" standalone="no"?>
<svg
   xmlns:dc="http://purl.org/dc/elements/1.1/"
   xmlns:cc="http://creativecommons.org/ns#"
   xmlns:rdf="http://www.w3.org/1999/02/22-rdf-syntax-ns#"
   xmlns:svg="http://www.w3.org/2000/svg"
   xmlns="http://www.w3.org/2000/svg"
   xmlns:sodipodi="http://sodipodi.sourceforge.net/DTD/sodipodi-0.dtd"
   xmlns:inkscape="http://www.inkscape.org/namespaces/inkscape"
   width="198.425"
   height="198.425"
   viewBox="0 0 198.425 198.425"
   version="1.1"
   id="svg64"
   sodipodi:docname="ldf.svg"
   inkscape:version="0.92.3 (2405546, 2018-03-11)"
   inkscape:export-filename="/home/robin/Pictures/csvwr-logo/ldf.png"
   inkscape:export-xdpi="96"
   inkscape:export-ydpi="96">
  <metadata
     id="metadata70">
    <rdf:RDF>
      <cc:Work
         rdf:about="">
        <dc:format>image/svg+xml</dc:format>
        <dc:type
           rdf:resource="http://purl.org/dc/dcmitype/StillImage" />
        <dc:title />
      </cc:Work>
    </rdf:RDF>
  </metadata>
  <defs
     id="defs68" />
  <sodipodi:namedview
     pagecolor="#ffffff"
     bordercolor="#666666"
     borderopacity="1"
     objecttolerance="10"
     gridtolerance="10"
     guidetolerance="10"
     inkscape:pageopacity="0"
     inkscape:pageshadow="2"
     inkscape:window-width="2560"
     inkscape:window-height="1387"
     id="namedview66"
     showgrid="false"
     inkscape:zoom="2.8255022"
     inkscape:cx="112.56387"
     inkscape:cy="101.78158"
     inkscape:window-x="640"
     inkscape:window-y="0"
     inkscape:window-maximized="1"
     inkscape:current-layer="svg64" />
  <g
     id="g4704"
     transform="translate(-3.737793e-5,88.001518)"
     inkscape:export-xdpi="537.59998"
     inkscape:export-ydpi="537.59998">
    <path
       inkscape:connector-curvature="0"
       id="path3738"
       d="M 134.2611,-3.7882687 V 46.024227"
       style="fill:none;stroke:#6b6b6b;stroke-width:1.03085721px;stroke-linecap:butt;stroke-linejoin:miter;stroke-opacity:1" />
    <path
       inkscape:connector-curvature="0"
       id="path3738-3"
       d="M 125.07089,-3.7882687 V 46.024228"
       style="fill:none;stroke:#6b6b6b;stroke-width:1.03085721px;stroke-linecap:butt;stroke-linejoin:miter;stroke-opacity:1" />
    <path
       inkscape:connector-curvature="0"
       id="path3738-6"
       d="M 115.8807,-3.7882687 V 46.024227"
       style="fill:none;stroke:#6b6b6b;stroke-width:1.03085721px;stroke-linecap:butt;stroke-linejoin:miter;stroke-opacity:1" />
    <path
       inkscape:connector-curvature="0"
       id="path3738-7"
       d="M 106.69051,-3.7882687 V 46.024227"
       style="fill:none;stroke:#6b6b6b;stroke-width:1.03085721px;stroke-linecap:butt;stroke-linejoin:miter;stroke-opacity:1" />
    <path
       inkscape:connector-curvature="0"
       id="path3738-7-5"
       d="M 97.500315,-3.7882687 V 46.024227"
       style="fill:none;stroke:#6b6b6b;stroke-width:1.03085721px;stroke-linecap:butt;stroke-linejoin:miter;stroke-opacity:1" />
    <path
       inkscape:connector-curvature="0"
       id="path3738-7-3"
       d="M 88.310122,-3.7882687 V 46.024228"
       style="fill:none;stroke:#6b6b6b;stroke-width:1.03085721px;stroke-linecap:butt;stroke-linejoin:miter;stroke-opacity:1" />
    <path
       inkscape:connector-curvature="0"
       id="path3738-7-56"
       d="M 79.119928,-3.7882687 V 46.024227"
       style="fill:none;stroke:#6b6b6b;stroke-width:1.03085721px;stroke-linecap:butt;stroke-linejoin:miter;stroke-opacity:1" />
    <path
       inkscape:connector-curvature="0"
       id="path3738-7-2"
       d="M 69.929735,-3.7882687 V 46.024227"
       style="fill:none;stroke:#6b6b6b;stroke-width:1.03085721px;stroke-linecap:butt;stroke-linejoin:miter;stroke-opacity:1" />
    <path
       inkscape:connector-curvature="0"
       id="path3738-7-9"
       d="M 60.739546,1.7380078 V 46.024227"
       style="fill:none;stroke:#6b6b6b;stroke-width:0.97114652px;stroke-linecap:round;stroke-linejoin:bevel;stroke-opacity:1" />
    <path
       inkscape:connector-curvature="0"
       id="path4611"
       d="M 69.881266,-3.7883343 H 134.2611"
       style="fill:none;stroke:#6b6b6b;stroke-width:0.9357667px;stroke-linecap:round;stroke-linejoin:bevel;stroke-opacity:1" />
    <path
       inkscape:connector-curvature="0"
       id="path4611-1"
       d="M 60.73954,18.350582 H 134.2611"
       style="fill:none;stroke:#6b6b6b;stroke-width:1px;stroke-linecap:round;stroke-linejoin:bevel;stroke-opacity:1" />
    <path
       inkscape:connector-curvature="0"
       id="path4611-2"
       d="M 60.73954,23.885311 H 134.2611"
       style="fill:none;stroke:#6b6b6b;stroke-width:1px;stroke-linecap:round;stroke-linejoin:bevel;stroke-opacity:1" />
    <path
       inkscape:connector-curvature="0"
       id="path4611-7"
       d="M 60.73954,40.489498 H 134.2611"
       style="fill:none;stroke:#6b6b6b;stroke-width:1px;stroke-linecap:round;stroke-linejoin:bevel;stroke-opacity:1" />
    <path
       inkscape:connector-curvature="0"
       id="path4611-0"
       d="M 60.73955,34.954769 H 134.2611"
       style="fill:none;stroke:#6b6b6b;stroke-width:1px;stroke-linecap:round;stroke-linejoin:bevel;stroke-opacity:1" />
    <path
       inkscape:connector-curvature="0"
       id="path4611-9"
       d="M 60.73954,29.42004 H 134.2611"
       style="fill:none;stroke:#6b6b6b;stroke-width:1px;stroke-linecap:round;stroke-linejoin:bevel;stroke-opacity:1" />
    <path
       inkscape:connector-curvature="0"
       id="path4611-3"
       d="M 60.73955,12.815853 H 134.2611"
       style="fill:none;stroke:#6b6b6b;stroke-width:1px;stroke-linecap:round;stroke-linejoin:bevel;stroke-opacity:1" />
    <path
       inkscape:connector-curvature="0"
       id="path4611-6"
       d="M 60.73954,7.2811237 H 134.2611"
       style="fill:none;stroke:#6b6b6b;stroke-width:1px;stroke-linecap:round;stroke-linejoin:bevel;stroke-opacity:1" />
    <path
       inkscape:connector-curvature="0"
       id="path4611-06"
       d="M 60.73954,46.024227 H 134.2611"
       style="fill:none;stroke:#6b6b6b;stroke-width:1px;stroke-linecap:round;stroke-linejoin:bevel;stroke-opacity:1" />
    <path
       inkscape:connector-curvature="0"
       id="path4611-6-2"
       d="M 60.751046,1.7463947 H 134.17709"
       style="fill:none;stroke:#6b6b6b;stroke-width:0.99935019px;stroke-linecap:round;stroke-linejoin:bevel;stroke-opacity:1" />
  </g>
  <path
     fill="#050507"
     d="M98.925 32.983l57.5 33.119v66.221l-57.5 33.119-57.5-33.119V66.102l57.5-33.119zm0-5.771l-62.5 36v72.001l62.5 36 62.5-36V63.212l-62.5-36z"
     id="path62"
     inkscape:export-xdpi="537.59998"
     inkscape:export-ydpi="537.59998" />
  <text
     xml:space="preserve"
     style="font-style:normal;font-weight:normal;font-size:40px;line-height:1.25;font-family:sans-serif;letter-spacing:0px;word-spacing:0px;fill:#000000;fill-opacity:1;stroke:none"
     x="229.02417"
     y="107.02003"
     id="text74"
     inkscape:export-xdpi="537.59998"
     inkscape:export-ydpi="537.59998"><tspan
       sodipodi:role="line"
       id="tspan72"
       x="229.02417"
       y="142.41064"
       style="font-style:normal;font-variant:normal;font-weight:normal;font-stretch:normal;font-size:266.66668701px;font-family:Ultra;-inkscape-font-specification:Ultra" /></text>
  <text
     xml:space="preserve"
     style="font-style:normal;font-weight:normal;font-size:40px;line-height:1.25;font-family:sans-serif;letter-spacing:-1.80999994px;word-spacing:0px;fill:#000000;fill-opacity:1;stroke:none"
     x="71.735001"
     y="73.981689"
     id="text78"
     inkscape:export-xdpi="537.59998"
     inkscape:export-ydpi="537.59998"><tspan
       sodipodi:role="line"
       id="tspan76"
       x="71.735001"
       y="73.981689"
       style="font-style:normal;font-variant:normal;font-weight:bold;font-stretch:normal;font-size:32px;font-family:'Source Sans Pro';-inkscape-font-specification:'Source Sans Pro Bold';font-variant-ligatures:normal;font-variant-caps:normal;font-variant-numeric:normal;font-feature-settings:normal;text-align:start;letter-spacing:0px;writing-mode:lr-tb;text-anchor:start;fill:#000000;fill-opacity:1">LDF</tspan></text>
  <g
     id="g1176"
     transform="matrix(1.1157149,0,0,1.1157149,-1303.3829,230.92639)"
     inkscape:export-xdpi="537.59998"
     inkscape:export-ydpi="537.59998">
    <g
       id="g1089"
       transform="matrix(0.16194971,0,0,0.16194971,1210.246,-135.86521)"
       style="image-rendering:optimizeQuality;shape-rendering:geometricPrecision;text-rendering:geometricPrecision">
      <path
         id="path993"
         d="m 383.476,267.343 c -2.544,-1.346 -5.14,-2.493 -7.743,-3.516 l 1.863,-0.15 c 0,0 -16.608,-7.354 -18.057,-60.722 -1.438,-53.372 15.828,-62.478 15.828,-62.478 l -2.48,0.109 c 13.045,-6.69 24.265,-17.267 31.669,-31.216 19.295,-36.291 5.488,-81.362 -30.81,-100.657 -36.31,-19.276 -81.372,-5.506 -100.656,30.817 -7.927,14.899 -10.178,31.273 -7.677,46.733 l -0.851,-1.306 c 0,0 4.373,19.365 -41.032,47.55 -45.397,28.2 -65.877,14.159 -65.877,14.159 l 1.302,1.925 c -1.298,-0.803 -2.544,-1.624 -3.901,-2.333 -36.306,-19.294 -81.38,-5.509 -100.667,30.804 -19.281,36.309 -5.489,81.365 30.813,100.668 27.064,14.364 58.974,10.36 81.461,-7.655 l -0.487,0.946 c 0,0 16.531,-13.599 64.16,11.973 37.601,20.178 43.184,39.956 43.899,47.383 -0.983,27.57 13.388,54.618 39.389,68.433 36.301,19.299 81.374,5.498 100.657,-30.804 19.292,-36.302 5.507,-81.382 -30.803,-100.663 z m -83.934,9.785 c -6.018,2.129 -23.203,4.487 -59.389,-14.921 -39.187,-21.04 -45.005,-38.615 -45.855,-43.891 0.557,-6.401 0.202,-12.791 -0.891,-19.02 l 0.239,0.359 c 0,0 -3.189,-17.096 41.65,-44.943 40.133,-24.908 58.376,-19.955 61.771,-18.653 2.185,1.485 4.45,2.867 6.825,4.131 4.518,2.398 9.174,4.283 13.888,5.672 5.52,5.257 15.678,20.178 16.733,59.413 1.078,39.535 -10.533,54.779 -16.865,60.168 -6.526,2.956 -12.626,6.897 -18.106,11.685 z"
         inkscape:connector-curvature="0"
         style="fill:#0c479c" />
      <g
         id="g997">
        <path
           id="path995"
           d="m 294.631,32.4 c -21.659,23.694 -22.118,58.544 -1.246,78.264 -10.316,-9.935 -10.093,-30.608 0.33,-50.387 1.342,-1.774 5.224,-5.961 10.898,-4.055 0.569,0.194 0.951,0.245 1.17,0.213 1.284,0.278 2.601,0.439 3.96,0.381 8.622,-0.393 15.288,-7.684 14.898,-16.307 -0.175,-3.868 -1.78,-7.292 -4.26,-9.92 20.007,-13.107 42.968,-14.61 52.375,-6.016 l 0.359,0.025 C 351.625,4.97 316.493,8.476 294.631,32.4 Z"
           inkscape:connector-curvature="0"
           style="fill:#ffffff" />
      </g>
      <g
         id="g1003">
        <path
           id="path999"
           d="m 76.205,251.381 c -0.184,-0.19 -0.371,-0.406 -0.562,-0.598 0.121,0.125 0.235,0.279 0.378,0.407 z"
           inkscape:connector-curvature="0"
           style="fill:#ffffff" />
        <path
           id="path1001"
           d="m 76.894,172.52 c -21.663,23.694 -22.114,58.541 -1.251,78.264 -10.313,-9.935 -10.092,-30.608 0.331,-50.387 1.345,-1.778 5.231,-5.961 10.906,-4.055 0.565,0.195 0.946,0.242 1.167,0.212 1.283,0.275 2.603,0.44 3.959,0.377 8.623,-0.392 15.288,-7.684 14.899,-16.303 -0.179,-3.867 -1.782,-7.296 -4.252,-9.92 19.995,-13.107 42.959,-14.617 52.366,-6.021 l 0.355,0.03 c -21.483,-19.631 -56.623,-16.126 -78.48,7.803 z"
           inkscape:connector-curvature="0"
           style="fill:#ffffff" />
      </g>
      <g
         id="g1009">
        <path
           id="path1005"
           d="m 306.701,370.015 c -0.187,-0.191 -0.374,-0.404 -0.564,-0.594 0.117,0.125 0.237,0.279 0.378,0.402 z"
           inkscape:connector-curvature="0"
           style="fill:#ffffff" />
        <path
           id="path1007"
           d="m 307.39,291.145 c -21.666,23.704 -22.118,58.553 -1.254,78.276 -10.317,-9.935 -10.09,-30.611 0.331,-50.388 1.344,-1.781 5.227,-5.96 10.906,-4.053 0.568,0.189 0.941,0.242 1.166,0.212 1.282,0.277 2.605,0.44 3.963,0.381 8.617,-0.396 15.28,-7.692 14.891,-16.32 -0.176,-3.864 -1.781,-7.288 -4.252,-9.917 20.002,-13.103 42.959,-14.61 52.37,-6.016 l 0.355,0.029 c -21.483,-19.631 -56.625,-16.123 -78.476,7.796 z"
           inkscape:connector-curvature="0"
           style="fill:#ffffff" />
      </g>
    </g>
  </g>
</svg>
